<svg xmlns="http://www.w3.org/2000/svg" xmlns:xlink="http://www.w3.org/1999/xlink" width="500" zoomAndPan="magnify" viewBox="0 0 375 374.999991" height="500" preserveAspectRatio="xMidYMid meet" version="1.0"><defs><clipPath id="a5c0bafe70"><path d="M 64.339844 101.511719 L 293 101.511719 L 293 273.261719 L 64.339844 273.261719 Z M 64.339844 101.511719 " clip-rule="nonzero"/></clipPath><clipPath id="df4cd05f3f"><path d="M 294 194 L 310.339844 194 L 310.339844 222 L 294 222 Z M 294 194 " clip-rule="nonzero"/></clipPath></defs><rect x="-37.5" width="450" fill="#ffffff" y="-37.499999" height="449.999989" fill-opacity="1"/><rect x="-37.5" width="450" fill="#ffffff" y="-37.499999" height="449.999989" fill-opacity="1"/><g clip-path="url(#a5c0bafe70)"><path fill="#c2b68b" d="M 292.328125 101.632812 L 292.328125 192.59375 L 245.664062 192.59375 L 245.664062 235.394531 L 241.800781 235.394531 L 241.800781 267.789062 L 232.289062 267.789062 L 232.289062 273.144531 L 125.871094 273.144531 L 125.871094 265.714844 L 107.4375 265.714844 L 100.007812 251.742188 L 103.574219 251.742188 L 64.339844 165.246094 Z M 292.328125 101.632812 " fill-opacity="1" fill-rule="nonzero"/></g><path fill="#ffffff" d="M 95.988281 211.824219 C 95.988281 205.898438 99.734375 202.230469 103.894531 202.230469 C 105.996094 202.230469 107.375 203.019531 108.992188 204.332031 L 108.84375 201.226562 L 108.84375 194.21875 L 111.949219 194.21875 L 111.949219 220.894531 L 109.40625 220.894531 L 109.140625 218.753906 L 109.03125 218.753906 C 107.609375 220.144531 105.660156 221.335938 103.519531 221.335938 C 98.945312 221.335938 95.988281 217.886719 95.988281 211.824219 Z M 108.835938 216.242188 L 108.835938 206.726562 C 107.296875 205.339844 105.917969 204.816406 104.417969 204.816406 C 101.5 204.816406 99.171875 207.625 99.171875 211.785156 C 99.171875 215.945312 101.007812 218.753906 104.191406 218.753906 C 105.878906 218.753906 107.335938 217.925781 108.835938 216.242188 Z M 108.835938 216.242188 " fill-opacity="0.55" fill-rule="nonzero"/><path fill="#ffffff" d="M 117.523438 196.949219 C 117.523438 195.746094 118.457031 194.964844 119.660156 194.964844 C 120.863281 194.964844 121.800781 195.753906 121.800781 196.949219 C 121.800781 198.144531 120.863281 198.929688 119.660156 198.929688 C 118.457031 198.929688 117.523438 198.105469 117.523438 196.949219 Z M 118.089844 202.683594 L 121.167969 202.683594 L 121.167969 220.894531 L 118.089844 220.894531 Z M 118.089844 202.683594 " fill-opacity="0.55" fill-rule="nonzero"/><path fill="#ffffff" d="M 125.28125 218.832031 L 126.816406 216.773438 C 128.394531 218.042969 130 218.949219 132.171875 218.949219 C 134.566406 218.949219 135.769531 217.675781 135.769531 216.101562 C 135.769531 214.226562 133.597656 213.402344 131.609375 212.652344 C 129.027344 211.714844 126.175781 210.480469 126.175781 207.40625 C 126.175781 204.332031 128.503906 202.238281 132.4375 202.238281 C 134.722656 202.238281 136.707031 203.175781 138.09375 204.300781 L 136.636719 206.25 C 135.402344 205.316406 134.089844 204.644531 132.476562 204.644531 C 130.1875 204.644531 129.144531 205.875 129.144531 207.265625 C 129.144531 208.992188 131.125 209.625 133.1875 210.410156 C 135.808594 211.386719 138.726562 212.472656 138.726562 215.921875 C 138.726562 218.878906 136.371094 221.351562 132.0625 221.351562 C 129.480469 221.351562 127.003906 220.269531 125.28125 218.839844 Z M 125.28125 218.832031 " fill-opacity="0.55" fill-rule="nonzero"/><path fill="#ffffff" d="M 154.539062 213.402344 L 145.585938 213.402344 L 143.230469 220.894531 L 140.046875 220.894531 L 148.367188 196.316406 L 151.886719 196.316406 L 160.207031 220.894531 L 156.871094 220.894531 L 154.546875 213.402344 Z M 153.75 210.886719 L 152.585938 207.140625 C 151.691406 204.410156 150.902344 201.710938 150.113281 198.859375 L 149.964844 198.859375 C 149.214844 201.710938 148.429688 204.402344 147.53125 207.140625 L 146.367188 210.886719 Z M 153.75 210.886719 " fill-opacity="1" fill-rule="nonzero"/><path fill="#ffffff" d="M 166.222656 219.019531 L 166.113281 219.019531 L 165.847656 220.894531 L 163.375 220.894531 L 163.375 194.21875 L 166.449219 194.21875 L 166.449219 201.484375 L 166.371094 204.777344 C 168.015625 203.316406 170.039062 202.230469 172.066406 202.230469 C 176.789062 202.230469 179.296875 205.867188 179.296875 211.488281 C 179.296875 217.707031 175.589844 221.335938 171.429688 221.335938 C 169.742188 221.335938 167.832031 220.480469 166.222656 219.011719 Z M 176.117188 211.519531 C 176.117188 207.507812 174.769531 204.816406 171.328125 204.816406 C 169.789062 204.816406 168.179688 205.675781 166.457031 207.289062 L 166.457031 216.84375 C 168.0625 218.230469 169.71875 218.753906 170.914062 218.753906 C 173.910156 218.753906 176.117188 216.023438 176.117188 211.519531 Z M 176.117188 211.519531 " fill-opacity="1" fill-rule="nonzero"/><path fill="#ffffff" d="M 183.53125 196.949219 C 183.53125 195.746094 184.46875 194.964844 185.671875 194.964844 C 186.875 194.964844 187.808594 195.753906 187.808594 196.949219 C 187.808594 198.144531 186.875 198.929688 185.671875 198.929688 C 184.46875 198.929688 183.53125 198.105469 183.53125 196.949219 Z M 184.09375 202.683594 L 187.167969 202.683594 L 187.167969 220.894531 L 184.09375 220.894531 Z M 184.09375 202.683594 " fill-opacity="1" fill-rule="nonzero"/><path fill="#ffffff" d="M 193.3125 217.21875 L 193.3125 194.21875 L 196.386719 194.21875 L 196.386719 217.441406 C 196.386719 218.417969 196.800781 218.792969 197.246094 218.792969 C 197.433594 218.792969 197.582031 218.792969 197.917969 218.714844 L 198.332031 221.042969 C 197.917969 221.226562 197.394531 221.335938 196.566406 221.335938 C 194.242188 221.335938 193.304688 219.878906 193.304688 217.21875 Z M 193.3125 217.21875 " fill-opacity="1" fill-rule="nonzero"/><path fill="#ffffff" d="M 202.304688 196.949219 C 202.304688 195.746094 203.238281 194.964844 204.441406 194.964844 C 205.644531 194.964844 206.578125 195.753906 206.578125 196.949219 C 206.578125 198.144531 205.644531 198.929688 204.441406 198.929688 C 203.238281 198.929688 202.304688 198.105469 202.304688 196.949219 Z M 202.863281 202.683594 L 205.941406 202.683594 L 205.941406 220.894531 L 202.863281 220.894531 Z M 202.863281 202.683594 " fill-opacity="1" fill-rule="nonzero"/><path fill="#ffffff" d="M 212.605469 215.273438 L 212.605469 205.199219 L 209.90625 205.199219 L 209.90625 202.871094 L 212.753906 202.683594 L 213.128906 197.589844 L 215.710938 197.589844 L 215.710938 202.683594 L 220.621094 202.683594 L 220.621094 205.199219 L 215.710938 205.199219 L 215.710938 215.3125 C 215.710938 217.558594 216.421875 218.832031 218.519531 218.832031 C 219.160156 218.832031 219.980469 218.566406 220.582031 218.347656 L 221.183594 220.675781 C 220.167969 221.011719 218.933594 221.351562 217.8125 221.351562 C 213.917969 221.351562 212.605469 218.878906 212.605469 215.28125 Z M 212.605469 215.273438 " fill-opacity="1" fill-rule="nonzero"/><path fill="#ffffff" d="M 222.90625 228.347656 L 223.507812 225.910156 C 223.882812 226.019531 224.445312 226.175781 224.898438 226.175781 C 226.957031 226.175781 228.269531 224.53125 229.019531 222.28125 L 229.429688 220.933594 L 222.125 202.683594 L 225.3125 202.683594 L 229.019531 212.761719 C 229.578125 214.335938 230.21875 216.210938 230.78125 217.894531 L 230.929688 217.894531 C 231.453125 216.25 231.976562 214.375 232.46875 212.761719 L 235.730469 202.683594 L 238.726562 202.683594 L 231.875 222.390625 C 230.601562 225.988281 228.730469 228.71875 225.054688 228.71875 C 224.226562 228.71875 223.515625 228.574219 222.914062 228.347656 Z M 222.90625 228.347656 " fill-opacity="1" fill-rule="nonzero"/><path fill="#c2b68b" d="M 249.917969 196.316406 L 253.023438 196.316406 L 253.023438 206.617188 L 264.449219 206.617188 L 264.449219 196.316406 L 267.597656 196.316406 L 267.597656 220.894531 L 264.449219 220.894531 L 264.449219 209.320312 L 253.023438 209.320312 L 253.023438 220.894531 L 249.917969 220.894531 Z M 249.917969 196.316406 " fill-opacity="1" fill-rule="nonzero"/><path fill="#c2b68b" d="M 273.785156 214.21875 L 273.785156 202.675781 L 276.890625 202.675781 L 276.890625 213.804688 C 276.890625 217.21875 277.90625 218.675781 280.300781 218.675781 C 282.175781 218.675781 283.484375 217.738281 285.210938 215.601562 L 285.210938 202.675781 L 288.285156 202.675781 L 288.285156 220.886719 L 285.742188 220.886719 L 285.476562 218.035156 L 285.367188 218.035156 C 283.679688 220.019531 281.886719 221.328125 279.375 221.328125 C 275.519531 221.328125 273.792969 218.855469 273.792969 214.210938 Z M 273.785156 214.21875 " fill-opacity="1" fill-rule="nonzero"/><g clip-path="url(#df4cd05f3f)"><path fill="#c2b68b" d="M 297.269531 219.019531 L 297.160156 219.019531 L 296.894531 220.894531 L 294.421875 220.894531 L 294.421875 194.21875 L 297.496094 194.21875 L 297.496094 201.484375 L 297.417969 204.777344 C 299.0625 203.316406 301.09375 202.230469 303.113281 202.230469 C 307.835938 202.230469 310.339844 205.867188 310.339844 211.488281 C 310.339844 217.707031 306.632812 221.335938 302.472656 221.335938 C 300.789062 221.335938 298.875 220.480469 297.269531 219.011719 Z M 307.15625 211.519531 C 307.15625 207.507812 305.808594 204.816406 302.367188 204.816406 C 300.828125 204.816406 299.21875 205.675781 297.496094 207.289062 L 297.496094 216.84375 C 299.101562 218.230469 300.757812 218.753906 301.953125 218.753906 C 304.949219 218.753906 307.15625 216.023438 307.15625 211.519531 Z M 307.15625 211.519531 " fill-opacity="1" fill-rule="nonzero"/></g><path fill="#ffffff" d="M 108.15625 179.195312 L 104.449219 179.195312 L 104.449219 177.882812 L 113.441406 177.882812 L 113.441406 179.195312 L 109.734375 179.195312 L 109.734375 190.175781 L 108.15625 190.175781 Z M 108.15625 179.195312 " fill-opacity="0.73" fill-rule="nonzero"/><path fill="#ffffff" d="M 114.632812 181.066406 L 115.90625 181.066406 L 116.039062 182.714844 L 116.09375 182.714844 C 116.710938 181.574219 117.648438 180.839844 118.675781 180.839844 C 119.066406 180.839844 119.347656 180.894531 119.652344 181.027344 L 119.355469 182.378906 C 119.058594 182.285156 118.847656 182.230469 118.472656 182.230469 C 117.710938 182.230469 116.789062 182.792969 116.171875 184.328125 L 116.171875 190.175781 L 114.632812 190.175781 Z M 114.632812 181.066406 " fill-opacity="0.73" fill-rule="nonzero"/><path fill="#ffffff" d="M 120.855469 178.195312 C 120.855469 177.59375 121.324219 177.203125 121.921875 177.203125 C 122.523438 177.203125 122.992188 177.59375 122.992188 178.195312 C 122.992188 178.796875 122.523438 179.1875 121.921875 179.1875 C 121.324219 179.1875 120.855469 178.773438 120.855469 178.195312 Z M 121.136719 181.066406 L 122.671875 181.066406 L 122.671875 190.167969 L 121.136719 190.167969 Z M 121.136719 181.066406 " fill-opacity="0.73" fill-rule="nonzero"/><path fill="#ffffff" d="M 125.746094 181.066406 L 127.019531 181.066406 L 127.152344 182.378906 L 127.207031 182.378906 C 128.066406 181.519531 129.003906 180.839844 130.257812 180.839844 C 132.171875 180.839844 133.03125 182.074219 133.03125 184.398438 L 133.03125 190.167969 L 131.492188 190.167969 L 131.492188 184.601562 C 131.492188 182.902344 130.96875 182.167969 129.765625 182.167969 C 128.832031 182.167969 128.191406 182.652344 127.277344 183.570312 L 127.277344 190.167969 L 125.738281 190.167969 L 125.738281 181.066406 Z M 125.746094 181.066406 " fill-opacity="0.73" fill-rule="nonzero"/><path fill="#ffffff" d="M 135.707031 178.195312 C 135.707031 177.59375 136.175781 177.203125 136.777344 177.203125 C 137.375 177.203125 137.84375 177.59375 137.84375 178.195312 C 137.84375 178.796875 137.375 179.1875 136.777344 179.1875 C 136.175781 179.1875 135.707031 178.773438 135.707031 178.195312 Z M 135.988281 181.066406 L 137.523438 181.066406 L 137.523438 190.167969 L 135.988281 190.167969 Z M 135.988281 181.066406 " fill-opacity="0.73" fill-rule="nonzero"/><path fill="#ffffff" d="M 140.859375 187.355469 L 140.859375 182.316406 L 139.507812 182.316406 L 139.507812 181.152344 L 140.929688 181.058594 L 141.113281 178.515625 L 142.410156 178.515625 L 142.410156 181.058594 L 144.863281 181.058594 L 144.863281 182.316406 L 142.410156 182.316406 L 142.410156 187.371094 C 142.410156 188.496094 142.769531 189.136719 143.816406 189.136719 C 144.136719 189.136719 144.550781 189.003906 144.847656 188.894531 L 145.140625 190.058594 C 144.636719 190.230469 144.019531 190.394531 143.457031 190.394531 C 141.503906 190.394531 140.851562 189.160156 140.851562 187.355469 Z M 140.859375 187.355469 " fill-opacity="0.73" fill-rule="nonzero"/><path fill="#ffffff" d="M 146.007812 193.898438 L 146.304688 192.679688 C 146.492188 192.734375 146.773438 192.8125 147 192.8125 C 148.03125 192.8125 148.6875 191.984375 149.058594 190.859375 L 149.261719 190.191406 L 145.609375 181.066406 L 147.203125 181.066406 L 149.058594 186.109375 C 149.339844 186.894531 149.660156 187.832031 149.941406 188.675781 L 150.019531 188.675781 C 150.285156 187.847656 150.542969 186.910156 150.785156 186.109375 L 152.417969 181.066406 L 153.914062 181.066406 L 150.488281 190.914062 C 149.847656 192.710938 148.910156 194.085938 147.078125 194.085938 C 146.664062 194.085938 146.3125 194.007812 146.007812 193.898438 Z M 146.007812 193.898438 " fill-opacity="0.73" fill-rule="nonzero"/></svg>