<svg xmlns="http://www.w3.org/2000/svg" xmlns:xlink="http://www.w3.org/1999/xlink" width="500" zoomAndPan="magnify" viewBox="0 0 375 374.999991" height="500" preserveAspectRatio="xMidYMid meet" version="1.0"><defs><g/><clipPath id="76e10a4afc"><path d="M 147 43 L 184 43 L 184 306 L 147 306 Z M 147 43 " clip-rule="nonzero"/></clipPath><clipPath id="a3cbe0ea2a"><path d="M -2.054688 185.246094 L 149.953125 3.417969 L 376.664062 192.945312 L 224.65625 374.777344 Z M -2.054688 185.246094 " clip-rule="nonzero"/></clipPath><clipPath id="a12f193401"><path d="M -2.054688 185.246094 L 149.953125 3.417969 L 376.664062 192.945312 L 224.65625 374.777344 Z M -2.054688 185.246094 " clip-rule="nonzero"/></clipPath><clipPath id="dfcddc8f7c"><path d="M 187 71 L 234 71 L 234 333 L 187 333 Z M 187 71 " clip-rule="nonzero"/></clipPath><clipPath id="4b9d19df36"><path d="M -2.054688 185.246094 L 149.953125 3.417969 L 376.664062 192.945312 L 224.65625 374.777344 Z M -2.054688 185.246094 " clip-rule="nonzero"/></clipPath><clipPath id="01af12d490"><path d="M -2.054688 185.246094 L 149.953125 3.417969 L 376.664062 192.945312 L 224.65625 374.777344 Z M -2.054688 185.246094 " clip-rule="nonzero"/></clipPath><clipPath id="63d838a7bc"><path d="M 125 32 L 162 32 L 162 290 L 125 290 Z M 125 32 " clip-rule="nonzero"/></clipPath><clipPath id="d56146ac53"><path d="M -2.054688 185.246094 L 149.953125 3.417969 L 376.664062 192.945312 L 224.65625 374.777344 Z M -2.054688 185.246094 " clip-rule="nonzero"/></clipPath><clipPath id="476ffed7a1"><path d="M -2.054688 185.246094 L 149.953125 3.417969 L 376.664062 192.945312 L 224.65625 374.777344 Z M -2.054688 185.246094 " clip-rule="nonzero"/></clipPath><clipPath id="85fde55203"><path d="M 105 20 L 141 20 L 141 277 L 105 277 Z M 105 20 " clip-rule="nonzero"/></clipPath><clipPath id="66a1ed9274"><path d="M -2.054688 185.246094 L 149.953125 3.417969 L 376.664062 192.945312 L 224.65625 374.777344 Z M -2.054688 185.246094 " clip-rule="nonzero"/></clipPath><clipPath id="60b792b939"><path d="M -2.054688 185.246094 L 149.953125 3.417969 L 376.664062 192.945312 L 224.65625 374.777344 Z M -2.054688 185.246094 " clip-rule="nonzero"/></clipPath><clipPath id="5dd54fd7f6"><path d="M 167 61 L 210 61 L 210 314 L 167 314 Z M 167 61 " clip-rule="nonzero"/></clipPath><clipPath id="0fc5884ae4"><path d="M -2.054688 185.246094 L 149.953125 3.417969 L 376.664062 192.945312 L 224.65625 374.777344 Z M -2.054688 185.246094 " clip-rule="nonzero"/></clipPath><clipPath id="1b372cc178"><path d="M -2.054688 185.246094 L 149.953125 3.417969 L 376.664062 192.945312 L 224.65625 374.777344 Z M -2.054688 185.246094 " clip-rule="nonzero"/></clipPath><clipPath id="e2bd5e85e2"><path d="M 206 106 L 252 106 L 252 355 L 206 355 Z M 206 106 " clip-rule="nonzero"/></clipPath><clipPath id="3ad8579f7f"><path d="M -2.054688 185.246094 L 149.953125 3.417969 L 376.664062 192.945312 L 224.65625 374.777344 Z M -2.054688 185.246094 " clip-rule="nonzero"/></clipPath><clipPath id="19fedf32fc"><path d="M -2.054688 185.246094 L 149.953125 3.417969 L 376.664062 192.945312 L 224.65625 374.777344 Z M -2.054688 185.246094 " clip-rule="nonzero"/></clipPath><clipPath id="7c50923ce3"><path d="M 229 123 L 275 123 L 275 364 L 229 364 Z M 229 123 " clip-rule="nonzero"/></clipPath><clipPath id="0944c81c46"><path d="M -2.054688 185.246094 L 149.953125 3.417969 L 376.664062 192.945312 L 224.65625 374.777344 Z M -2.054688 185.246094 " clip-rule="nonzero"/></clipPath><clipPath id="410be58818"><path d="M -2.054688 185.246094 L 149.953125 3.417969 L 376.664062 192.945312 L 224.65625 374.777344 Z M -2.054688 185.246094 " clip-rule="nonzero"/></clipPath><clipPath id="7652acaf01"><path d="M 90 51 L 116 51 L 116 238 L 90 238 Z M 90 51 " clip-rule="nonzero"/></clipPath><clipPath id="2cd79a8e7c"><path d="M -2.054688 185.246094 L 149.953125 3.417969 L 376.664062 192.945312 L 224.65625 374.777344 Z M -2.054688 185.246094 " clip-rule="nonzero"/></clipPath><clipPath id="7a3b4cc1b0"><path d="M -2.054688 185.246094 L 149.953125 3.417969 L 376.664062 192.945312 L 224.65625 374.777344 Z M -2.054688 185.246094 " clip-rule="nonzero"/></clipPath><clipPath id="587d6d5017"><path d="M 158 35 L 195 35 L 195 299 L 158 299 Z M 158 35 " clip-rule="nonzero"/></clipPath><clipPath id="c5d67d5847"><path d="M 8.863281 177.671875 L 160.875 -4.15625 L 387.585938 185.371094 L 235.578125 367.203125 Z M 8.863281 177.671875 " clip-rule="nonzero"/></clipPath><clipPath id="0c4d3f9b8d"><path d="M 8.863281 177.671875 L 160.875 -4.15625 L 387.585938 185.371094 L 235.578125 367.203125 Z M 8.863281 177.671875 " clip-rule="nonzero"/></clipPath><clipPath id="737cebb029"><path d="M 198 64 L 245 64 L 245 326 L 198 326 Z M 198 64 " clip-rule="nonzero"/></clipPath><clipPath id="fe8434d260"><path d="M 8.863281 177.671875 L 160.875 -4.15625 L 387.585938 185.371094 L 235.578125 367.203125 Z M 8.863281 177.671875 " clip-rule="nonzero"/></clipPath><clipPath id="36f8ebb727"><path d="M 8.863281 177.671875 L 160.875 -4.15625 L 387.585938 185.371094 L 235.578125 367.203125 Z M 8.863281 177.671875 " clip-rule="nonzero"/></clipPath><clipPath id="754ebcd9a4"><path d="M 136 24 L 173 24 L 173 283 L 136 283 Z M 136 24 " clip-rule="nonzero"/></clipPath><clipPath id="590991be9c"><path d="M 8.863281 177.671875 L 160.875 -4.15625 L 387.585938 185.371094 L 235.578125 367.203125 Z M 8.863281 177.671875 " clip-rule="nonzero"/></clipPath><clipPath id="b24005de1e"><path d="M 8.863281 177.671875 L 160.875 -4.15625 L 387.585938 185.371094 L 235.578125 367.203125 Z M 8.863281 177.671875 " clip-rule="nonzero"/></clipPath><clipPath id="ee481a2357"><path d="M 116 12 L 152 12 L 152 269 L 116 269 Z M 116 12 " clip-rule="nonzero"/></clipPath><clipPath id="7f6bf5f349"><path d="M 8.863281 177.671875 L 160.875 -4.15625 L 387.585938 185.371094 L 235.578125 367.203125 Z M 8.863281 177.671875 " clip-rule="nonzero"/></clipPath><clipPath id="4e8eb56da3"><path d="M 8.863281 177.671875 L 160.875 -4.15625 L 387.585938 185.371094 L 235.578125 367.203125 Z M 8.863281 177.671875 " clip-rule="nonzero"/></clipPath><clipPath id="0c4aa7bee3"><path d="M 178 53 L 221 53 L 221 307 L 178 307 Z M 178 53 " clip-rule="nonzero"/></clipPath><clipPath id="9b6c194dc6"><path d="M 8.863281 177.671875 L 160.875 -4.15625 L 387.585938 185.371094 L 235.578125 367.203125 Z M 8.863281 177.671875 " clip-rule="nonzero"/></clipPath><clipPath id="f4b380d9fb"><path d="M 8.863281 177.671875 L 160.875 -4.15625 L 387.585938 185.371094 L 235.578125 367.203125 Z M 8.863281 177.671875 " clip-rule="nonzero"/></clipPath><clipPath id="94706475e5"><path d="M 217 99 L 263 99 L 263 347 L 217 347 Z M 217 99 " clip-rule="nonzero"/></clipPath><clipPath id="2417ac49a3"><path d="M 8.863281 177.671875 L 160.875 -4.15625 L 387.585938 185.371094 L 235.578125 367.203125 Z M 8.863281 177.671875 " clip-rule="nonzero"/></clipPath><clipPath id="c248803316"><path d="M 8.863281 177.671875 L 160.875 -4.15625 L 387.585938 185.371094 L 235.578125 367.203125 Z M 8.863281 177.671875 " clip-rule="nonzero"/></clipPath><clipPath id="5565e8f5f8"><path d="M 240 115 L 285 115 L 285 357 L 240 357 Z M 240 115 " clip-rule="nonzero"/></clipPath><clipPath id="e701acbd47"><path d="M 8.863281 177.671875 L 160.875 -4.15625 L 387.585938 185.371094 L 235.578125 367.203125 Z M 8.863281 177.671875 " clip-rule="nonzero"/></clipPath><clipPath id="0d85207a87"><path d="M 8.863281 177.671875 L 160.875 -4.15625 L 387.585938 185.371094 L 235.578125 367.203125 Z M 8.863281 177.671875 " clip-rule="nonzero"/></clipPath><clipPath id="52fcea181e"><path d="M 101 44 L 127 44 L 127 230 L 101 230 Z M 101 44 " clip-rule="nonzero"/></clipPath><clipPath id="146c915cfc"><path d="M 8.863281 177.671875 L 160.875 -4.15625 L 387.585938 185.371094 L 235.578125 367.203125 Z M 8.863281 177.671875 " clip-rule="nonzero"/></clipPath><clipPath id="3713029e76"><path d="M 8.863281 177.671875 L 160.875 -4.15625 L 387.585938 185.371094 L 235.578125 367.203125 Z M 8.863281 177.671875 " clip-rule="nonzero"/></clipPath><clipPath id="a291e13097"><path d="M 49.082031 78.585938 L 325.917969 78.585938 L 325.917969 296.414062 L 49.082031 296.414062 Z M 49.082031 78.585938 " clip-rule="nonzero"/></clipPath><clipPath id="200cb466b8"><path d="M 0.0820312 0.585938 L 276.917969 0.585938 L 276.917969 218.414062 L 0.0820312 218.414062 Z M 0.0820312 0.585938 " clip-rule="nonzero"/></clipPath><clipPath id="85d9aa693e"><rect x="0" width="277" y="0" height="219"/></clipPath><clipPath id="eb5cfa3f89"><path d="M 49.082031 78.585938 L 325.832031 78.585938 L 325.832031 296.085938 L 49.082031 296.085938 Z M 49.082031 78.585938 " clip-rule="nonzero"/></clipPath></defs><rect x="-37.5" width="450" fill="#ffffff" y="-37.499999" height="449.999989" fill-opacity="1"/><rect x="-37.5" width="450" fill="#ffffff" y="-37.499999" height="449.999989" fill-opacity="1"/><g clip-path="url(#76e10a4afc)"><g clip-path="url(#a3cbe0ea2a)"><g clip-path="url(#a12f193401)"><path fill="#fcbb07" d="M 182.632812 44.050781 C 183.417969 44.707031 183.699219 45.578125 183.613281 46.566406 C 183.519531 47.796875 183.40625 49.023438 183.269531 50.253906 C 182.386719 58.46875 181.066406 66.628906 179.941406 74.8125 C 177.496094 92.609375 174.992188 110.410156 172.570312 128.210938 C 168.429688 158.632812 164.753906 189.121094 161.234375 219.617188 C 158.429688 243.945312 155.960938 268.308594 154.066406 292.722656 C 153.804688 296.117188 153.367188 299.5 153.003906 302.890625 C 152.992188 303.019531 152.976562 303.140625 152.957031 303.265625 C 152.664062 304.945312 151.5 305.929688 149.972656 305.777344 C 148.5 305.628906 147.523438 304.507812 147.570312 302.835938 C 147.710938 297.855469 147.898438 292.875 148.308594 287.910156 C 150.972656 255.605469 154.507812 223.394531 158.429688 191.214844 C 161.273438 167.839844 164.160156 144.464844 167.347656 121.132812 C 170.402344 98.773438 173.488281 76.417969 176.746094 54.085938 C 177.136719 51.433594 177.664062 48.800781 178.144531 46.15625 C 178.324219 45.167969 178.664062 44.273438 179.640625 43.765625 C 180.625 43.257812 181.777344 43.347656 182.636719 44.035156 Z M 182.632812 44.050781 " fill-opacity="1" fill-rule="nonzero"/></g></g></g><g clip-path="url(#dfcddc8f7c)"><g clip-path="url(#4b9d19df36)"><g clip-path="url(#01af12d490)"><path fill="#fcbb07" d="M 192.410156 331.5625 C 191.621094 332.527344 190.621094 332.835938 189.511719 332.503906 C 188.429688 332.179688 187.722656 331.320312 187.648438 330.167969 C 187.621094 329.746094 187.675781 329.316406 187.738281 328.902344 C 191.171875 304.0625 195.289062 279.316406 199.15625 254.542969 C 202.960938 230.230469 206.761719 205.917969 210.578125 181.605469 C 213.652344 162.046875 216.75 142.492188 219.839844 122.941406 C 221.945312 109.648438 224.054688 96.363281 226.191406 83.082031 C 226.652344 80.222656 227.257812 77.390625 227.808594 74.550781 C 227.890625 74.132812 227.988281 73.710938 228.148438 73.324219 C 228.632812 72.164062 229.832031 71.515625 231.042969 71.707031 C 232.207031 71.894531 233.109375 72.808594 233.289062 74.015625 C 233.378906 74.613281 233.265625 75.203125 233.199219 75.792969 C 232.171875 84.980469 230.578125 94.085938 229.144531 103.207031 C 225.683594 125.246094 222.183594 147.28125 218.710938 169.320312 C 215.726562 188.289062 212.761719 207.261719 209.785156 226.234375 C 205.609375 252.859375 201.433594 279.484375 197.242188 306.109375 C 196.125 313.214844 195.191406 320.359375 193.660156 327.394531 C 193.449219 328.347656 193.230469 329.308594 193.015625 330.257812 C 192.902344 330.765625 192.710938 331.234375 192.402344 331.574219 Z M 192.410156 331.5625 " fill-opacity="1" fill-rule="nonzero"/></g></g></g><g clip-path="url(#63d838a7bc)"><g clip-path="url(#d56146ac53)"><g clip-path="url(#476ffed7a1)"><path fill="#fcbb07" d="M 130 288.917969 C 129.238281 289.738281 128.3125 290.027344 127.226562 289.746094 C 126.164062 289.46875 125.40625 288.589844 125.292969 287.449219 C 125.242188 286.941406 125.289062 286.425781 125.316406 285.917969 C 125.964844 272 127.472656 258.144531 128.820312 244.289062 C 132.433594 207.105469 137.222656 170.0625 142.214844 133.046875 C 146.082031 104.390625 150.175781 75.765625 154.203125 47.128906 C 154.761719 43.164062 155.414062 39.21875 156.15625 35.28125 C 156.25 34.78125 156.335938 34.28125 156.554688 33.808594 C 157.050781 32.699219 158.152344 32.03125 159.3125 32.15625 C 160.53125 32.28125 161.503906 33.21875 161.710938 34.464844 C 161.800781 35.015625 161.722656 35.566406 161.667969 36.121094 C 160.992188 43.550781 159.84375 50.910156 158.796875 58.296875 C 154.65625 87.644531 150.523438 117 146.554688 146.367188 C 144.015625 165.191406 141.746094 184.050781 139.445312 202.90625 C 136.453125 227.390625 134.121094 251.933594 131.941406 276.5 C 131.632812 279.980469 131.136719 283.4375 130.722656 286.90625 C 130.636719 287.625 130.507812 288.34375 129.992188 288.917969 Z M 130 288.917969 " fill-opacity="1" fill-rule="nonzero"/></g></g></g><g clip-path="url(#85fde55203)"><g clip-path="url(#66a1ed9274)"><g clip-path="url(#60b792b939)"><path fill="#fcbb07" d="M 139.214844 21.148438 C 140.078125 21.8125 140.246094 22.792969 140.15625 23.855469 C 139.945312 26.316406 139.792969 28.785156 139.503906 31.238281 C 137.757812 45.992188 135.96875 60.75 134.195312 75.503906 C 130.589844 105.394531 126.960938 135.285156 123.496094 165.191406 C 120.832031 188.199219 118.242188 211.222656 115.765625 234.257812 C 114.734375 243.785156 113.707031 253.3125 112.648438 262.835938 C 112.285156 266.136719 111.746094 269.414062 111.078125 272.671875 C 110.960938 273.257812 110.832031 273.84375 110.621094 274.402344 C 110.15625 275.640625 108.9375 276.324219 107.671875 276.121094 C 106.410156 275.914062 105.492188 274.871094 105.433594 273.539062 C 105.429688 273.285156 105.460938 273.027344 105.484375 272.773438 C 106.84375 260.113281 108.21875 247.449219 109.570312 234.796875 C 113.1875 200.835938 117.085938 166.90625 121.132812 132.992188 C 124.003906 108.972656 126.914062 84.960938 129.816406 60.953125 C 131.074219 50.597656 132.339844 40.238281 133.636719 29.890625 C 133.925781 27.609375 134.335938 25.347656 134.707031 23.078125 C 134.855469 22.164062 135.21875 21.375 136.070312 20.878906 C 137.105469 20.28125 138.25 20.359375 139.214844 21.160156 Z M 139.214844 21.148438 " fill-opacity="1" fill-rule="nonzero"/></g></g></g><g clip-path="url(#5dd54fd7f6)"><g clip-path="url(#0fc5884ae4)"><g clip-path="url(#1b372cc178)"><path fill="#fcbb07" d="M 168.53125 312.980469 C 167.753906 312.308594 167.394531 311.4375 167.660156 310.460938 C 168.136719 308.71875 168.238281 306.9375 168.429688 305.160156 C 169.421875 296.226562 170.84375 287.351562 172.039062 278.449219 C 174.074219 263.257812 176.132812 248.0625 178.207031 232.871094 C 180.9375 212.875 183.921875 192.910156 186.957031 172.960938 C 190.015625 152.839844 193.03125 132.707031 196.085938 112.585938 C 198.277344 98.1875 200.296875 83.769531 202.644531 69.398438 C 202.945312 67.546875 203.335938 65.714844 203.691406 63.882812 C 203.828125 63.160156 204.03125 62.460938 204.613281 61.960938 C 205.453125 61.238281 206.417969 61.003906 207.464844 61.433594 C 208.460938 61.839844 209.042969 62.601562 209.128906 63.671875 C 209.175781 64.261719 209.105469 64.859375 209.046875 65.449219 C 208.355469 72.527344 207.210938 79.550781 206.164062 86.582031 C 203.796875 102.421875 201.417969 118.25 199.027344 134.078125 C 196.296875 152.183594 193.546875 170.289062 190.8125 188.386719 C 188.164062 205.90625 185.636719 223.4375 183.273438 240.988281 C 180.574219 260.992188 177.925781 281 175.046875 300.976562 C 174.597656 304.09375 173.957031 307.183594 173.402344 310.285156 C 173.273438 311.007812 173.050781 311.695312 172.648438 312.3125 C 171.714844 313.757812 169.8125 314.058594 168.539062 312.972656 Z M 168.53125 312.980469 " fill-opacity="1" fill-rule="nonzero"/></g></g></g><g clip-path="url(#e2bd5e85e2)"><g clip-path="url(#3ad8579f7f)"><g clip-path="url(#19fedf32fc)"><path fill="#fcbb07" d="M 250.855469 107.488281 C 251.753906 108.199219 251.960938 109.152344 251.820312 110.234375 C 251.40625 113.484375 251.070312 116.753906 250.574219 119.988281 C 248.160156 135.683594 245.71875 151.375 243.253906 167.066406 C 240.003906 187.761719 236.738281 208.453125 233.449219 229.140625 C 229.859375 251.71875 226.226562 274.292969 222.613281 296.867188 C 220.292969 311.375 218.015625 325.886719 215.460938 340.347656 C 214.863281 343.746094 214.089844 347.105469 213.136719 350.417969 C 212.898438 351.238281 212.597656 352.042969 212.101562 352.738281 C 211.0625 354.222656 209.21875 354.457031 207.71875 353.328125 C 206.394531 352.328125 206.1875 350.632812 207.316406 349.28125 C 207.757812 348.75 207.910156 348.171875 208.015625 347.546875 C 209.492188 338.894531 211.023438 330.265625 212.433594 321.605469 C 216.347656 297.398438 220.238281 273.183594 224.082031 248.964844 C 230.039062 211.460938 235.953125 173.9375 241.878906 136.429688 C 243.226562 127.933594 244.429688 119.417969 246.109375 110.976562 C 246.265625 110.1875 246.386719 109.371094 246.660156 108.621094 C 247.304688 106.851562 249.417969 106.304688 250.847656 107.480469 Z M 250.855469 107.488281 " fill-opacity="1" fill-rule="nonzero"/></g></g></g><g clip-path="url(#7c50923ce3)"><g clip-path="url(#0944c81c46)"><g clip-path="url(#410be58818)"><path fill="#fcbb07" d="M 234.667969 362.976562 C 233.910156 363.722656 232.996094 364.101562 231.90625 363.777344 C 230.828125 363.460938 230.179688 362.726562 229.992188 361.609375 C 229.882812 360.964844 230.042969 360.339844 230.132812 359.710938 C 231.796875 348.546875 234.171875 337.515625 236.195312 326.410156 C 240.007812 305.464844 243.355469 284.445312 246.667969 263.414062 C 251.554688 232.328125 256.402344 201.238281 261.292969 170.160156 C 263.28125 157.542969 265.183594 144.910156 267.402344 132.335938 C 267.765625 130.28125 268.195312 128.242188 268.585938 126.191406 C 268.71875 125.511719 268.894531 124.847656 269.414062 124.363281 C 270.253906 123.5625 271.234375 123.289062 272.351562 123.726562 C 273.421875 124.144531 273.976562 124.960938 274.039062 126.066406 C 274.078125 126.738281 273.960938 127.421875 273.886719 128.101562 C 272.851562 137.035156 271.304688 145.882812 269.910156 154.753906 C 265.3125 184.070312 260.699219 213.382812 256.105469 242.707031 C 252.105469 268.28125 248.164062 293.867188 243.667969 319.359375 C 241.347656 332.527344 238.972656 345.675781 236.027344 358.722656 C 235.824219 359.636719 235.589844 360.542969 235.371094 361.453125 C 235.238281 362 235.035156 362.503906 234.667969 362.988281 Z M 234.667969 362.976562 " fill-opacity="1" fill-rule="nonzero"/></g></g></g><g clip-path="url(#7652acaf01)"><g clip-path="url(#2cd79a8e7c)"><g clip-path="url(#7a3b4cc1b0)"><path fill="#fcbb07" d="M 114.613281 52.578125 C 115.433594 53.214844 115.675781 54.105469 115.625 55.078125 C 115.527344 56.777344 115.460938 58.484375 115.265625 60.175781 C 114.292969 68.550781 113.285156 76.914062 112.285156 85.289062 C 109.921875 105.164062 107.683594 125.046875 105.496094 144.949219 C 102.6875 170.472656 100.136719 196.023438 97.589844 221.574219 C 97.160156 225.90625 96.394531 230.175781 95.660156 234.457031 C 95.546875 235.105469 95.308594 235.675781 94.867188 236.167969 C 94.179688 236.933594 93.316406 237.191406 92.324219 236.96875 C 91.324219 236.753906 90.683594 236.121094 90.359375 235.15625 C 90.160156 234.570312 90.230469 233.972656 90.289062 233.382812 C 93.085938 205.289062 95.832031 177.195312 98.886719 149.125 C 102.054688 120.039062 105.421875 90.984375 108.929688 61.9375 C 109.230469 59.484375 109.601562 57.046875 110.089844 54.621094 C 110.292969 53.628906 110.632812 52.742188 111.621094 52.246094 C 112.617188 51.746094 113.75 51.859375 114.609375 52.574219 Z M 114.613281 52.578125 " fill-opacity="1" fill-rule="nonzero"/></g></g></g><g clip-path="url(#587d6d5017)"><g clip-path="url(#c5d67d5847)"><g clip-path="url(#0c4d3f9b8d)"><path fill="#7a489d" d="M 193.554688 36.476562 C 194.339844 37.132812 194.617188 38.003906 194.535156 38.992188 C 194.4375 40.222656 194.324219 41.449219 194.191406 42.679688 C 193.308594 50.894531 191.984375 59.054688 190.859375 67.238281 C 188.414062 85.035156 185.910156 102.835938 183.492188 120.636719 C 179.347656 151.058594 175.671875 181.546875 172.15625 212.042969 C 169.347656 236.371094 166.882812 260.734375 164.984375 285.148438 C 164.722656 288.542969 164.285156 291.925781 163.925781 295.316406 C 163.910156 295.445312 163.894531 295.566406 163.875 295.691406 C 163.585938 297.371094 162.417969 298.355469 160.894531 298.203125 C 159.417969 298.054688 158.441406 296.933594 158.488281 295.261719 C 158.628906 290.28125 158.816406 285.300781 159.230469 280.335938 C 161.894531 248.03125 165.429688 215.820312 169.347656 183.640625 C 172.191406 160.265625 175.078125 136.890625 178.269531 113.558594 C 181.324219 91.199219 184.410156 68.84375 187.667969 46.511719 C 188.058594 43.859375 188.585938 41.226562 189.0625 38.582031 C 189.246094 37.59375 189.585938 36.699219 190.558594 36.191406 C 191.546875 35.683594 192.699219 35.773438 193.558594 36.460938 Z M 193.554688 36.476562 " fill-opacity="1" fill-rule="nonzero"/></g></g></g><g clip-path="url(#737cebb029)"><g clip-path="url(#fe8434d260)"><g clip-path="url(#36f8ebb727)"><path fill="#7a489d" d="M 203.332031 323.988281 C 202.542969 324.953125 201.542969 325.261719 200.429688 324.929688 C 199.351562 324.605469 198.640625 323.746094 198.570312 322.59375 C 198.542969 322.171875 198.597656 321.742188 198.65625 321.328125 C 202.089844 296.484375 206.207031 271.742188 210.078125 246.96875 C 213.878906 222.65625 217.683594 198.34375 221.5 174.03125 C 224.570312 154.472656 227.667969 134.917969 230.761719 115.367188 C 232.863281 102.074219 234.972656 88.789062 237.113281 75.507812 C 237.574219 72.648438 238.179688 69.816406 238.730469 66.976562 C 238.8125 66.558594 238.90625 66.136719 239.070312 65.75 C 239.550781 64.589844 240.753906 63.941406 241.960938 64.132812 C 243.128906 64.320312 244.027344 65.234375 244.210938 66.441406 C 244.300781 67.039062 244.1875 67.628906 244.121094 68.21875 C 243.089844 77.40625 241.5 86.511719 240.066406 95.632812 C 236.605469 117.671875 233.101562 139.707031 229.628906 161.746094 C 226.644531 180.714844 223.683594 199.6875 220.703125 218.65625 C 216.527344 245.285156 212.351562 271.910156 208.160156 298.535156 C 207.042969 305.640625 206.113281 312.785156 204.578125 319.816406 C 204.371094 320.773438 204.148438 321.730469 203.933594 322.683594 C 203.824219 323.191406 203.632812 323.660156 203.320312 324 Z M 203.332031 323.988281 " fill-opacity="1" fill-rule="nonzero"/></g></g></g><g clip-path="url(#754ebcd9a4)"><g clip-path="url(#590991be9c)"><g clip-path="url(#b24005de1e)"><path fill="#7a489d" d="M 140.921875 281.34375 C 140.160156 282.164062 139.230469 282.453125 138.144531 282.171875 C 137.082031 281.894531 136.328125 281.015625 136.214844 279.875 C 136.164062 279.367188 136.210938 278.851562 136.238281 278.34375 C 136.886719 264.425781 138.394531 250.570312 139.742188 236.714844 C 143.351562 199.53125 148.140625 162.488281 153.136719 125.472656 C 157 96.816406 161.097656 68.191406 165.125 39.554688 C 165.683594 35.589844 166.335938 31.644531 167.078125 27.707031 C 167.171875 27.207031 167.257812 26.707031 167.472656 26.234375 C 167.96875 25.125 169.070312 24.457031 170.230469 24.582031 C 171.449219 24.707031 172.425781 25.644531 172.628906 26.890625 C 172.722656 27.441406 172.640625 27.992188 172.585938 28.546875 C 171.914062 35.976562 170.761719 43.335938 169.71875 50.722656 C 165.578125 80.070312 161.445312 109.425781 157.476562 138.792969 C 154.933594 157.617188 152.667969 176.476562 150.367188 195.332031 C 147.371094 219.816406 145.042969 244.359375 142.863281 268.925781 C 142.550781 272.40625 142.058594 275.863281 141.640625 279.332031 C 141.554688 280.050781 141.429688 280.769531 140.910156 281.34375 Z M 140.921875 281.34375 " fill-opacity="1" fill-rule="nonzero"/></g></g></g><g clip-path="url(#ee481a2357)"><g clip-path="url(#7f6bf5f349)"><g clip-path="url(#4e8eb56da3)"><path fill="#7a489d" d="M 150.136719 13.574219 C 150.996094 14.238281 151.167969 15.21875 151.078125 16.28125 C 150.867188 18.742188 150.714844 21.210938 150.425781 23.664062 C 148.675781 38.417969 146.890625 53.175781 145.113281 67.929688 C 141.511719 97.820312 137.878906 127.710938 134.417969 157.613281 C 131.753906 180.625 129.160156 203.648438 126.683594 226.683594 C 125.65625 236.210938 124.625 245.738281 123.570312 255.261719 C 123.207031 258.5625 122.664062 261.839844 121.996094 265.097656 C 121.878906 265.683594 121.75 266.269531 121.539062 266.828125 C 121.078125 268.066406 119.859375 268.75 118.589844 268.546875 C 117.328125 268.339844 116.410156 267.296875 116.355469 265.964844 C 116.347656 265.710938 116.382812 265.453125 116.40625 265.199219 C 117.761719 252.539062 119.136719 239.875 120.488281 227.222656 C 124.109375 193.261719 128.003906 159.332031 132.054688 125.417969 C 134.921875 101.398438 137.835938 77.386719 140.738281 53.378906 C 141.992188 43.023438 143.261719 32.664062 144.558594 22.316406 C 144.847656 20.035156 145.257812 17.773438 145.628906 15.503906 C 145.773438 14.589844 146.140625 13.800781 146.992188 13.304688 C 148.027344 12.707031 149.167969 12.785156 150.136719 13.585938 Z M 150.136719 13.574219 " fill-opacity="1" fill-rule="nonzero"/></g></g></g><g clip-path="url(#0c4aa7bee3)"><g clip-path="url(#9b6c194dc6)"><g clip-path="url(#f4b380d9fb)"><path fill="#7a489d" d="M 179.453125 305.40625 C 178.671875 304.734375 178.316406 303.863281 178.582031 302.886719 C 179.058594 301.144531 179.15625 299.363281 179.351562 297.585938 C 180.339844 288.652344 181.765625 279.777344 182.960938 270.875 C 184.996094 255.683594 187.054688 240.488281 189.125 225.296875 C 191.859375 205.300781 194.839844 185.335938 197.878906 165.386719 C 200.933594 145.265625 203.949219 125.132812 207.007812 105.011719 C 209.199219 90.613281 211.214844 76.195312 213.5625 61.824219 C 213.867188 59.972656 214.257812 58.140625 214.609375 56.308594 C 214.746094 55.585938 214.949219 54.886719 215.53125 54.386719 C 216.375 53.664062 217.335938 53.429688 218.386719 53.859375 C 219.382812 54.265625 219.960938 55.027344 220.046875 56.097656 C 220.09375 56.6875 220.023438 57.285156 219.96875 57.875 C 219.273438 64.953125 218.128906 71.976562 217.082031 79.007812 C 214.714844 94.847656 212.335938 110.675781 209.949219 126.503906 C 207.21875 144.609375 204.46875 162.714844 201.734375 180.8125 C 199.085938 198.332031 196.558594 215.863281 194.191406 233.414062 C 191.492188 253.417969 188.84375 273.425781 185.964844 293.402344 C 185.519531 296.519531 184.878906 299.609375 184.320312 302.710938 C 184.195312 303.433594 183.96875 304.121094 183.570312 304.738281 C 182.636719 306.183594 180.730469 306.484375 179.457031 305.398438 Z M 179.453125 305.40625 " fill-opacity="1" fill-rule="nonzero"/></g></g></g><g clip-path="url(#94706475e5)"><g clip-path="url(#2417ac49a3)"><g clip-path="url(#c248803316)"><path fill="#7a489d" d="M 261.773438 99.910156 C 262.671875 100.625 262.882812 101.578125 262.742188 102.660156 C 262.324219 105.910156 261.992188 109.175781 261.492188 112.414062 C 259.082031 128.109375 256.636719 143.800781 254.175781 159.492188 C 250.925781 180.1875 247.660156 200.878906 244.367188 221.566406 C 240.777344 244.144531 237.148438 266.71875 233.53125 289.292969 C 231.210938 303.800781 228.9375 318.3125 226.378906 332.773438 C 225.78125 336.171875 225.007812 339.53125 224.054688 342.84375 C 223.820312 343.664062 223.515625 344.46875 223.019531 345.164062 C 221.980469 346.648438 220.136719 346.882812 218.636719 345.753906 C 217.316406 344.753906 217.105469 343.058594 218.234375 341.707031 C 218.679688 341.175781 218.828125 340.597656 218.933594 339.972656 C 220.410156 331.320312 221.945312 322.691406 223.351562 314.03125 C 227.269531 289.824219 231.15625 265.609375 235.003906 241.390625 C 240.960938 203.886719 246.871094 166.363281 252.800781 128.855469 C 254.144531 120.359375 255.347656 111.84375 257.03125 103.402344 C 257.1875 102.613281 257.304688 101.796875 257.582031 101.046875 C 258.226562 99.277344 260.335938 98.730469 261.769531 99.90625 Z M 261.773438 99.910156 " fill-opacity="1" fill-rule="nonzero"/></g></g></g><g clip-path="url(#5565e8f5f8)"><g clip-path="url(#e701acbd47)"><g clip-path="url(#0d85207a87)"><path fill="#7a489d" d="M 245.585938 355.402344 C 244.832031 356.148438 243.914062 356.527344 242.824219 356.203125 C 241.75 355.886719 241.097656 355.152344 240.910156 354.035156 C 240.800781 353.390625 240.964844 352.765625 241.050781 352.136719 C 242.71875 340.972656 245.089844 329.941406 247.113281 318.835938 C 250.925781 297.890625 254.277344 276.871094 257.589844 255.839844 C 262.476562 224.753906 267.320312 193.664062 272.210938 162.585938 C 274.199219 149.96875 276.101562 137.335938 278.320312 124.761719 C 278.6875 122.707031 279.117188 120.667969 279.507812 118.617188 C 279.640625 117.9375 279.8125 117.273438 280.332031 116.789062 C 281.175781 115.988281 282.15625 115.714844 283.273438 116.152344 C 284.339844 116.570312 284.894531 117.386719 284.957031 118.492188 C 284.996094 119.164062 284.882812 119.847656 284.808594 120.527344 C 283.773438 129.460938 282.226562 138.308594 280.832031 147.179688 C 276.234375 176.496094 271.617188 205.808594 267.023438 235.132812 C 263.023438 260.707031 259.082031 286.292969 254.585938 311.785156 C 252.265625 324.953125 249.890625 338.101562 246.949219 351.148438 C 246.746094 352.0625 246.511719 352.96875 246.289062 353.878906 C 246.160156 354.425781 245.953125 354.929688 245.589844 355.414062 Z M 245.585938 355.402344 " fill-opacity="1" fill-rule="nonzero"/></g></g></g><g clip-path="url(#52fcea181e)"><g clip-path="url(#146c915cfc)"><g clip-path="url(#3713029e76)"><path fill="#7a489d" d="M 125.535156 45.003906 C 126.351562 45.640625 126.597656 46.53125 126.542969 47.503906 C 126.449219 49.203125 126.382812 50.910156 126.1875 52.601562 C 125.214844 60.976562 124.203125 69.339844 123.207031 77.714844 C 120.84375 97.589844 118.601562 117.472656 116.417969 137.375 C 113.609375 162.898438 111.058594 188.449219 108.511719 214 C 108.078125 218.332031 107.316406 222.601562 106.578125 226.882812 C 106.464844 227.53125 106.226562 228.101562 105.789062 228.59375 C 105.101562 229.359375 104.238281 229.617188 103.242188 229.394531 C 102.246094 229.179688 101.601562 228.546875 101.277344 227.582031 C 101.082031 226.996094 101.152344 226.398438 101.207031 225.808594 C 104.003906 197.714844 106.753906 169.621094 109.804688 141.550781 C 112.972656 112.464844 116.34375 83.410156 119.851562 54.363281 C 120.152344 51.910156 120.523438 49.472656 121.011719 47.046875 C 121.214844 46.054688 121.554688 45.167969 122.539062 44.671875 C 123.535156 44.171875 124.671875 44.285156 125.527344 45 Z M 125.535156 45.003906 " fill-opacity="1" fill-rule="nonzero"/></g></g></g><g clip-path="url(#a291e13097)"><g transform="matrix(1, 0, 0, 1, 49, 78)"><g clip-path="url(#85d9aa693e)"><g clip-path="url(#200cb466b8)"><path fill="#0569b9" d="M 0.0820312 0.585938 L 276.625 0.585938 L 276.625 218.414062 L 0.0820312 218.414062 Z M 0.0820312 0.585938 " fill-opacity="1" fill-rule="nonzero"/></g></g></g></g><g clip-path="url(#eb5cfa3f89)"><path stroke-linecap="butt" transform="matrix(0.75, 0, 0, 0.75, 49.080884, 78.585609)" fill="none" stroke-linejoin="miter" d="M 0.00152903 0.000437681 L 369.110928 0.000437681 L 369.110928 290.432748 L 0.00152903 290.432748 Z M 0.00152903 0.000437681 " stroke="#fdfbf7" stroke-width="10" stroke-opacity="1" stroke-miterlimit="4"/></g><g fill="#ffffff" fill-opacity="1"><g transform="translate(111.962832, 229.224945)"><g><path d="M 2.765625 0 L 2.765625 -23.46875 L 9.390625 -23.46875 C 11.191406 -23.46875 12.8125 -23.238281 14.25 -22.78125 C 15.695312 -22.332031 16.9375 -21.632812 17.96875 -20.6875 C 19 -19.738281 19.789062 -18.53125 20.34375 -17.0625 C 20.894531 -15.601562 21.171875 -13.863281 21.171875 -11.84375 C 21.171875 -9.820312 20.894531 -8.066406 20.34375 -6.578125 C 19.789062 -5.097656 19.007812 -3.867188 18 -2.890625 C 16.988281 -1.921875 15.78125 -1.195312 14.375 -0.71875 C 12.976562 -0.238281 11.414062 0 9.6875 0 Z M 8.0625 -4.28125 L 9.078125 -4.28125 C 10.078125 -4.28125 10.984375 -4.410156 11.796875 -4.671875 C 12.617188 -4.941406 13.316406 -5.367188 13.890625 -5.953125 C 14.472656 -6.546875 14.925781 -7.320312 15.25 -8.28125 C 15.570312 -9.238281 15.734375 -10.425781 15.734375 -11.84375 C 15.734375 -13.238281 15.570312 -14.410156 15.25 -15.359375 C 14.925781 -16.304688 14.472656 -17.0625 13.890625 -17.625 C 13.316406 -18.1875 12.617188 -18.585938 11.796875 -18.828125 C 10.984375 -19.066406 10.078125 -19.1875 9.078125 -19.1875 L 8.0625 -19.1875 Z M 8.0625 -4.28125 "/></g></g></g><g fill="#ffffff" fill-opacity="1"><g transform="translate(134.822874, 229.224945)"><g><path d="M 2.34375 0 L 2.34375 -17.859375 L 7.625 -17.859375 L 7.625 0 Z M 4.96875 -20.484375 C 4.082031 -20.484375 3.347656 -20.738281 2.765625 -21.25 C 2.191406 -21.769531 1.90625 -22.4375 1.90625 -23.25 C 1.90625 -24.070312 2.191406 -24.734375 2.765625 -25.234375 C 3.347656 -25.734375 4.082031 -25.984375 4.96875 -25.984375 C 5.882812 -25.984375 6.625 -25.734375 7.1875 -25.234375 C 7.75 -24.734375 8.03125 -24.070312 8.03125 -23.25 C 8.03125 -22.4375 7.75 -21.769531 7.1875 -21.25 C 6.625 -20.738281 5.882812 -20.484375 4.96875 -20.484375 Z M 4.96875 -20.484375 "/></g></g></g><g fill="#ffffff" fill-opacity="1"><g transform="translate(144.758897, 229.224945)"><g><path d="M 7.59375 0.4375 C 6.414062 0.4375 5.207031 0.207031 3.96875 -0.25 C 2.738281 -0.707031 1.664062 -1.304688 0.75 -2.046875 L 3.125 -5.359375 C 3.945312 -4.734375 4.726562 -4.265625 5.46875 -3.953125 C 6.21875 -3.640625 6.972656 -3.484375 7.734375 -3.484375 C 8.523438 -3.484375 9.101562 -3.613281 9.46875 -3.875 C 9.832031 -4.144531 10.015625 -4.519531 10.015625 -5 C 10.015625 -5.289062 9.910156 -5.550781 9.703125 -5.78125 C 9.492188 -6.007812 9.21875 -6.21875 8.875 -6.40625 C 8.53125 -6.601562 8.140625 -6.773438 7.703125 -6.921875 C 7.273438 -7.078125 6.832031 -7.253906 6.375 -7.453125 C 5.820312 -7.671875 5.269531 -7.921875 4.71875 -8.203125 C 4.164062 -8.492188 3.660156 -8.847656 3.203125 -9.265625 C 2.742188 -9.691406 2.367188 -10.1875 2.078125 -10.75 C 1.796875 -11.3125 1.65625 -11.960938 1.65625 -12.703125 C 1.65625 -13.523438 1.816406 -14.28125 2.140625 -14.96875 C 2.460938 -15.664062 2.921875 -16.253906 3.515625 -16.734375 C 4.117188 -17.210938 4.84375 -17.585938 5.6875 -17.859375 C 6.53125 -18.140625 7.46875 -18.28125 8.5 -18.28125 C 9.863281 -18.28125 11.0625 -18.046875 12.09375 -17.578125 C 13.125 -17.117188 14.023438 -16.597656 14.796875 -16.015625 L 12.421875 -12.859375 C 11.773438 -13.335938 11.140625 -13.707031 10.515625 -13.96875 C 9.890625 -14.226562 9.265625 -14.359375 8.640625 -14.359375 C 7.296875 -14.359375 6.625 -13.890625 6.625 -12.953125 C 6.625 -12.671875 6.71875 -12.425781 6.90625 -12.21875 C 7.101562 -12.019531 7.363281 -11.832031 7.6875 -11.65625 C 8.007812 -11.488281 8.378906 -11.328125 8.796875 -11.171875 C 9.222656 -11.015625 9.660156 -10.851562 10.109375 -10.6875 C 10.691406 -10.476562 11.265625 -10.234375 11.828125 -9.953125 C 12.390625 -9.679688 12.90625 -9.335938 13.375 -8.921875 C 13.84375 -8.515625 14.21875 -8.015625 14.5 -7.421875 C 14.789062 -6.835938 14.9375 -6.140625 14.9375 -5.328125 C 14.9375 -4.515625 14.78125 -3.757812 14.46875 -3.0625 C 14.15625 -2.363281 13.6875 -1.753906 13.0625 -1.234375 C 12.4375 -0.722656 11.664062 -0.316406 10.75 -0.015625 C 9.84375 0.285156 8.789062 0.4375 7.59375 0.4375 Z M 7.59375 0.4375 "/></g></g></g><g fill="#ffffff" fill-opacity="1"><g transform="translate(160.706924, 229.224945)"><g><path d="M 6.84375 0.4375 C 6.019531 0.4375 5.28125 0.296875 4.625 0.015625 C 3.96875 -0.253906 3.410156 -0.632812 2.953125 -1.125 C 2.492188 -1.625 2.140625 -2.195312 1.890625 -2.84375 C 1.640625 -3.488281 1.515625 -4.195312 1.515625 -4.96875 C 1.515625 -6.84375 2.304688 -8.304688 3.890625 -9.359375 C 5.472656 -10.410156 8.03125 -11.117188 11.5625 -11.484375 C 11.507812 -12.273438 11.269531 -12.90625 10.84375 -13.375 C 10.425781 -13.84375 9.726562 -14.078125 8.75 -14.078125 C 7.976562 -14.078125 7.210938 -13.929688 6.453125 -13.640625 C 5.703125 -13.359375 4.894531 -12.960938 4.03125 -12.453125 L 2.125 -15.953125 C 3.28125 -16.640625 4.484375 -17.195312 5.734375 -17.625 C 6.992188 -18.0625 8.332031 -18.28125 9.75 -18.28125 C 12.0625 -18.28125 13.820312 -17.625 15.03125 -16.3125 C 16.238281 -15.007812 16.84375 -12.976562 16.84375 -10.21875 L 16.84375 0 L 12.53125 0 L 12.171875 -1.84375 L 12.03125 -1.84375 C 11.257812 -1.164062 10.453125 -0.613281 9.609375 -0.1875 C 8.773438 0.226562 7.851562 0.4375 6.84375 0.4375 Z M 8.640625 -3.671875 C 9.242188 -3.671875 9.757812 -3.800781 10.1875 -4.0625 C 10.625 -4.332031 11.082031 -4.707031 11.5625 -5.1875 L 11.5625 -8.3125 C 9.6875 -8.050781 8.390625 -7.664062 7.671875 -7.15625 C 6.953125 -6.65625 6.59375 -6.054688 6.59375 -5.359375 C 6.59375 -4.785156 6.773438 -4.359375 7.140625 -4.078125 C 7.515625 -3.804688 8.015625 -3.671875 8.640625 -3.671875 Z M 8.640625 -3.671875 "/></g></g></g><g fill="#ffffff" fill-opacity="1"><g transform="translate(179.678961, 229.224945)"><g><path d="M 11.703125 0.4375 C 10.910156 0.4375 10.109375 0.238281 9.296875 -0.15625 C 8.492188 -0.550781 7.75 -1.132812 7.0625 -1.90625 L 6.90625 -1.90625 L 6.484375 0 L 2.34375 0 L 2.34375 -25.234375 L 7.625 -25.234375 L 7.625 -19.046875 L 7.484375 -16.3125 C 8.179688 -16.9375 8.929688 -17.421875 9.734375 -17.765625 C 10.535156 -18.109375 11.359375 -18.28125 12.203125 -18.28125 C 13.285156 -18.28125 14.257812 -18.0625 15.125 -17.625 C 15.988281 -17.195312 16.722656 -16.59375 17.328125 -15.8125 C 17.941406 -15.039062 18.410156 -14.09375 18.734375 -12.96875 C 19.054688 -11.851562 19.21875 -10.613281 19.21875 -9.25 C 19.21875 -7.71875 19.007812 -6.347656 18.59375 -5.140625 C 18.175781 -3.941406 17.613281 -2.925781 16.90625 -2.09375 C 16.195312 -1.269531 15.390625 -0.640625 14.484375 -0.203125 C 13.585938 0.222656 12.660156 0.4375 11.703125 0.4375 Z M 10.46875 -3.890625 C 11.382812 -3.890625 12.164062 -4.300781 12.8125 -5.125 C 13.457031 -5.957031 13.78125 -7.296875 13.78125 -9.140625 C 13.78125 -12.359375 12.75 -13.96875 10.6875 -13.96875 C 9.632812 -13.96875 8.613281 -13.425781 7.625 -12.34375 L 7.625 -5.046875 C 8.113281 -4.609375 8.597656 -4.304688 9.078125 -4.140625 C 9.554688 -3.972656 10.019531 -3.890625 10.46875 -3.890625 Z M 10.46875 -3.890625 "/></g></g></g><g fill="#ffffff" fill-opacity="1"><g transform="translate(200.307004, 229.224945)"><g><path d="M 2.34375 0 L 2.34375 -17.859375 L 7.625 -17.859375 L 7.625 0 Z M 4.96875 -20.484375 C 4.082031 -20.484375 3.347656 -20.738281 2.765625 -21.25 C 2.191406 -21.769531 1.90625 -22.4375 1.90625 -23.25 C 1.90625 -24.070312 2.191406 -24.734375 2.765625 -25.234375 C 3.347656 -25.734375 4.082031 -25.984375 4.96875 -25.984375 C 5.882812 -25.984375 6.625 -25.734375 7.1875 -25.234375 C 7.75 -24.734375 8.03125 -24.070312 8.03125 -23.25 C 8.03125 -22.4375 7.75 -21.769531 7.1875 -21.25 C 6.625 -20.738281 5.882812 -20.484375 4.96875 -20.484375 Z M 4.96875 -20.484375 "/></g></g></g><g fill="#ffffff" fill-opacity="1"><g transform="translate(210.243027, 229.224945)"><g><path d="M 7.203125 0.4375 C 6.285156 0.4375 5.515625 0.289062 4.890625 0 C 4.265625 -0.289062 3.765625 -0.691406 3.390625 -1.203125 C 3.023438 -1.722656 2.757812 -2.347656 2.59375 -3.078125 C 2.425781 -3.804688 2.34375 -4.628906 2.34375 -5.546875 L 2.34375 -25.234375 L 7.625 -25.234375 L 7.625 -5.328125 C 7.625 -4.773438 7.726562 -4.390625 7.9375 -4.171875 C 8.144531 -3.960938 8.351562 -3.859375 8.5625 -3.859375 C 8.6875 -3.859375 8.789062 -3.859375 8.875 -3.859375 C 8.957031 -3.859375 9.070312 -3.878906 9.21875 -3.921875 L 9.859375 0 C 9.578125 0.125 9.210938 0.226562 8.765625 0.3125 C 8.316406 0.394531 7.796875 0.4375 7.203125 0.4375 Z M 7.203125 0.4375 "/></g></g></g><g fill="#ffffff" fill-opacity="1"><g transform="translate(220.539047, 229.224945)"><g><path d="M 2.34375 0 L 2.34375 -17.859375 L 7.625 -17.859375 L 7.625 0 Z M 4.96875 -20.484375 C 4.082031 -20.484375 3.347656 -20.738281 2.765625 -21.25 C 2.191406 -21.769531 1.90625 -22.4375 1.90625 -23.25 C 1.90625 -24.070312 2.191406 -24.734375 2.765625 -25.234375 C 3.347656 -25.734375 4.082031 -25.984375 4.96875 -25.984375 C 5.882812 -25.984375 6.625 -25.734375 7.1875 -25.234375 C 7.75 -24.734375 8.03125 -24.070312 8.03125 -23.25 C 8.03125 -22.4375 7.75 -21.769531 7.1875 -21.25 C 6.625 -20.738281 5.882812 -20.484375 4.96875 -20.484375 Z M 4.96875 -20.484375 "/></g></g></g><g fill="#ffffff" fill-opacity="1"><g transform="translate(230.47507, 229.224945)"><g><path d="M 9.21875 0.4375 C 8.113281 0.4375 7.171875 0.269531 6.390625 -0.0625 C 5.609375 -0.40625 4.972656 -0.875 4.484375 -1.46875 C 3.992188 -2.070312 3.632812 -2.800781 3.40625 -3.65625 C 3.175781 -4.507812 3.0625 -5.453125 3.0625 -6.484375 L 3.0625 -13.71875 L 0.609375 -13.71875 L 0.609375 -17.640625 L 3.34375 -17.859375 L 3.953125 -22.609375 L 8.359375 -22.609375 L 8.359375 -17.859375 L 12.640625 -17.859375 L 12.640625 -13.71875 L 8.359375 -13.71875 L 8.359375 -6.546875 C 8.359375 -5.546875 8.566406 -4.820312 8.984375 -4.375 C 9.398438 -3.925781 9.957031 -3.703125 10.65625 -3.703125 C 10.945312 -3.703125 11.238281 -3.738281 11.53125 -3.8125 C 11.832031 -3.882812 12.101562 -3.96875 12.34375 -4.0625 L 13.171875 -0.21875 C 12.691406 -0.0703125 12.128906 0.0703125 11.484375 0.21875 C 10.835938 0.363281 10.082031 0.4375 9.21875 0.4375 Z M 9.21875 0.4375 "/></g></g></g><g fill="#ffffff" fill-opacity="1"><g transform="translate(244.263094, 229.224945)"><g><path d="M 4.3125 6.984375 C 3.757812 6.984375 3.289062 6.953125 2.90625 6.890625 C 2.53125 6.828125 2.160156 6.738281 1.796875 6.625 L 2.734375 2.59375 C 2.898438 2.632812 3.09375 2.679688 3.3125 2.734375 C 3.53125 2.785156 3.734375 2.8125 3.921875 2.8125 C 4.804688 2.8125 5.488281 2.59375 5.96875 2.15625 C 6.457031 1.726562 6.820312 1.164062 7.0625 0.46875 L 7.3125 -0.46875 L 0.4375 -17.859375 L 5.765625 -17.859375 L 8.3125 -10.1875 C 8.582031 -9.375 8.820312 -8.546875 9.03125 -7.703125 C 9.25 -6.859375 9.476562 -5.992188 9.71875 -5.109375 L 9.859375 -5.109375 C 10.054688 -5.953125 10.253906 -6.796875 10.453125 -7.640625 C 10.660156 -8.492188 10.875 -9.34375 11.09375 -10.1875 L 13.25 -17.859375 L 18.328125 -17.859375 L 12.125 0.1875 C 11.695312 1.3125 11.25 2.296875 10.78125 3.140625 C 10.3125 3.992188 9.769531 4.703125 9.15625 5.265625 C 8.550781 5.835938 7.859375 6.265625 7.078125 6.546875 C 6.296875 6.835938 5.375 6.984375 4.3125 6.984375 Z M 4.3125 6.984375 "/></g></g></g><g fill="#ffffff" fill-opacity="1"><g transform="translate(84.236272, 258.474943)"><g><path d="M 7.734375 0.34375 C 6.535156 0.34375 5.34375 0.125 4.15625 -0.3125 C 2.96875 -0.757812 1.910156 -1.421875 0.984375 -2.296875 L 3.328125 -5.125 C 3.984375 -4.5625 4.707031 -4.101562 5.5 -3.75 C 6.289062 -3.394531 7.070312 -3.21875 7.84375 -3.21875 C 8.695312 -3.21875 9.332031 -3.375 9.75 -3.6875 C 10.175781 -4.007812 10.390625 -4.441406 10.390625 -4.984375 C 10.390625 -5.265625 10.328125 -5.503906 10.203125 -5.703125 C 10.085938 -5.910156 9.910156 -6.09375 9.671875 -6.25 C 9.441406 -6.414062 9.160156 -6.566406 8.828125 -6.703125 C 8.503906 -6.847656 8.144531 -7.003906 7.75 -7.171875 L 5.375 -8.171875 C 4.90625 -8.359375 4.453125 -8.601562 4.015625 -8.90625 C 3.578125 -9.207031 3.1875 -9.554688 2.84375 -9.953125 C 2.5 -10.359375 2.222656 -10.828125 2.015625 -11.359375 C 1.804688 -11.890625 1.703125 -12.488281 1.703125 -13.15625 C 1.703125 -13.90625 1.859375 -14.609375 2.171875 -15.265625 C 2.492188 -15.929688 2.941406 -16.507812 3.515625 -17 C 4.097656 -17.5 4.785156 -17.890625 5.578125 -18.171875 C 6.378906 -18.453125 7.253906 -18.59375 8.203125 -18.59375 C 9.265625 -18.59375 10.3125 -18.382812 11.34375 -17.96875 C 12.382812 -17.5625 13.296875 -16.96875 14.078125 -16.1875 L 11.984375 -13.578125 C 11.390625 -14.046875 10.789062 -14.40625 10.1875 -14.65625 C 9.59375 -14.90625 8.929688 -15.03125 8.203125 -15.03125 C 7.492188 -15.03125 6.925781 -14.882812 6.5 -14.59375 C 6.082031 -14.3125 5.875 -13.910156 5.875 -13.390625 C 5.875 -13.109375 5.941406 -12.867188 6.078125 -12.671875 C 6.222656 -12.472656 6.421875 -12.296875 6.671875 -12.140625 C 6.929688 -11.984375 7.226562 -11.832031 7.5625 -11.6875 C 7.894531 -11.550781 8.257812 -11.398438 8.65625 -11.234375 L 11 -10.28125 C 12.125 -9.832031 13.003906 -9.210938 13.640625 -8.421875 C 14.285156 -7.640625 14.609375 -6.601562 14.609375 -5.3125 C 14.609375 -4.550781 14.453125 -3.828125 14.140625 -3.140625 C 13.835938 -2.460938 13.390625 -1.867188 12.796875 -1.359375 C 12.210938 -0.847656 11.492188 -0.4375 10.640625 -0.125 C 9.785156 0.1875 8.816406 0.34375 7.734375 0.34375 Z M 7.734375 0.34375 "/></g></g></g><g fill="#ffffff" fill-opacity="1"><g transform="translate(99.802146, 258.474943)"><g><path d="M 5.984375 0.34375 C 4.472656 0.34375 3.378906 -0.148438 2.703125 -1.140625 C 2.023438 -2.128906 1.6875 -3.503906 1.6875 -5.265625 L 1.6875 -13.890625 L 5.796875 -13.890625 L 5.796875 -5.796875 C 5.796875 -4.785156 5.9375 -4.09375 6.21875 -3.71875 C 6.5 -3.34375 6.9375 -3.15625 7.53125 -3.15625 C 8.050781 -3.15625 8.488281 -3.273438 8.84375 -3.515625 C 9.195312 -3.765625 9.582031 -4.160156 10 -4.703125 L 10 -13.890625 L 14.109375 -13.890625 L 14.109375 0 L 10.75 0 L 10.4375 -1.9375 L 10.359375 -1.9375 C 9.765625 -1.226562 9.125 -0.671875 8.4375 -0.265625 C 7.757812 0.140625 6.941406 0.34375 5.984375 0.34375 Z M 5.984375 0.34375 "/></g></g></g><g fill="#ffffff" fill-opacity="1"><g transform="translate(115.703974, 258.474943)"><g><path d="M 1.8125 0 L 1.8125 -13.890625 L 5.1875 -13.890625 L 5.453125 -12.09375 L 5.578125 -12.09375 C 6.148438 -12.675781 6.765625 -13.175781 7.421875 -13.59375 C 8.078125 -14.007812 8.859375 -14.21875 9.765625 -14.21875 C 10.753906 -14.21875 11.550781 -14.015625 12.15625 -13.609375 C 12.769531 -13.210938 13.253906 -12.644531 13.609375 -11.90625 C 14.222656 -12.539062 14.867188 -13.082031 15.546875 -13.53125 C 16.234375 -13.988281 17.039062 -14.21875 17.96875 -14.21875 C 19.46875 -14.21875 20.566406 -13.71875 21.265625 -12.71875 C 21.960938 -11.726562 22.3125 -10.363281 22.3125 -8.625 L 22.3125 0 L 18.203125 0 L 18.203125 -8.09375 C 18.203125 -9.101562 18.066406 -9.789062 17.796875 -10.15625 C 17.523438 -10.53125 17.085938 -10.71875 16.484375 -10.71875 C 15.796875 -10.71875 15.003906 -10.269531 14.109375 -9.375 L 14.109375 0 L 10 0 L 10 -8.09375 C 10 -9.101562 9.863281 -9.789062 9.59375 -10.15625 C 9.320312 -10.53125 8.882812 -10.71875 8.28125 -10.71875 C 7.570312 -10.71875 6.789062 -10.269531 5.9375 -9.375 L 5.9375 0 Z M 1.8125 0 "/></g></g></g><g fill="#ffffff" fill-opacity="1"><g transform="translate(139.696705, 258.474943)"><g><path d="M 1.8125 0 L 1.8125 -13.890625 L 5.1875 -13.890625 L 5.453125 -12.09375 L 5.578125 -12.09375 C 6.148438 -12.675781 6.765625 -13.175781 7.421875 -13.59375 C 8.078125 -14.007812 8.859375 -14.21875 9.765625 -14.21875 C 10.753906 -14.21875 11.550781 -14.015625 12.15625 -13.609375 C 12.769531 -13.210938 13.253906 -12.644531 13.609375 -11.90625 C 14.222656 -12.539062 14.867188 -13.082031 15.546875 -13.53125 C 16.234375 -13.988281 17.039062 -14.21875 17.96875 -14.21875 C 19.46875 -14.21875 20.566406 -13.71875 21.265625 -12.71875 C 21.960938 -11.726562 22.3125 -10.363281 22.3125 -8.625 L 22.3125 0 L 18.203125 0 L 18.203125 -8.09375 C 18.203125 -9.101562 18.066406 -9.789062 17.796875 -10.15625 C 17.523438 -10.53125 17.085938 -10.71875 16.484375 -10.71875 C 15.796875 -10.71875 15.003906 -10.269531 14.109375 -9.375 L 14.109375 0 L 10 0 L 10 -8.09375 C 10 -9.101562 9.863281 -9.789062 9.59375 -10.15625 C 9.320312 -10.53125 8.882812 -10.71875 8.28125 -10.71875 C 7.570312 -10.71875 6.789062 -10.269531 5.9375 -9.375 L 5.9375 0 Z M 1.8125 0 "/></g></g></g><g fill="#ffffff" fill-opacity="1"><g transform="translate(163.689437, 258.474943)"><g><path d="M 8.03125 0.34375 C 7.039062 0.34375 6.113281 0.179688 5.25 -0.140625 C 4.394531 -0.472656 3.648438 -0.953125 3.015625 -1.578125 C 2.390625 -2.203125 1.898438 -2.960938 1.546875 -3.859375 C 1.191406 -4.753906 1.015625 -5.78125 1.015625 -6.9375 C 1.015625 -8.0625 1.195312 -9.078125 1.5625 -9.984375 C 1.9375 -10.890625 2.425781 -11.65625 3.03125 -12.28125 C 3.644531 -12.90625 4.34375 -13.382812 5.125 -13.71875 C 5.90625 -14.050781 6.71875 -14.21875 7.5625 -14.21875 C 8.550781 -14.21875 9.410156 -14.050781 10.140625 -13.71875 C 10.878906 -13.382812 11.492188 -12.914062 11.984375 -12.3125 C 12.484375 -11.71875 12.851562 -11.015625 13.09375 -10.203125 C 13.34375 -9.390625 13.46875 -8.507812 13.46875 -7.5625 C 13.46875 -7.1875 13.445312 -6.828125 13.40625 -6.484375 C 13.375 -6.148438 13.335938 -5.898438 13.296875 -5.734375 L 4.984375 -5.734375 C 5.171875 -4.734375 5.585938 -3.992188 6.234375 -3.515625 C 6.878906 -3.035156 7.664062 -2.796875 8.59375 -2.796875 C 9.582031 -2.796875 10.582031 -3.101562 11.59375 -3.71875 L 12.96875 -1.234375 C 12.257812 -0.742188 11.46875 -0.359375 10.59375 -0.078125 C 9.726562 0.203125 8.875 0.34375 8.03125 0.34375 Z M 4.953125 -8.453125 L 9.96875 -8.453125 C 9.96875 -9.234375 9.789062 -9.867188 9.4375 -10.359375 C 9.082031 -10.847656 8.484375 -11.09375 7.640625 -11.09375 C 6.984375 -11.09375 6.410156 -10.875 5.921875 -10.4375 C 5.429688 -10.007812 5.109375 -9.347656 4.953125 -8.453125 Z M 4.953125 -8.453125 "/></g></g></g><g fill="#ffffff" fill-opacity="1"><g transform="translate(178.191458, 258.474943)"><g><path d="M 1.8125 0 L 1.8125 -13.890625 L 5.1875 -13.890625 L 5.453125 -11.453125 L 5.578125 -11.453125 C 6.078125 -12.398438 6.679688 -13.097656 7.390625 -13.546875 C 8.097656 -13.992188 8.804688 -14.21875 9.515625 -14.21875 C 9.910156 -14.21875 10.234375 -14.191406 10.484375 -14.140625 C 10.734375 -14.097656 10.960938 -14.03125 11.171875 -13.9375 L 10.5 -10.390625 C 10.238281 -10.460938 9.992188 -10.515625 9.765625 -10.546875 C 9.546875 -10.585938 9.285156 -10.609375 8.984375 -10.609375 C 8.460938 -10.609375 7.914062 -10.421875 7.34375 -10.046875 C 6.78125 -9.671875 6.3125 -9.007812 5.9375 -8.0625 L 5.9375 0 Z M 1.8125 0 "/></g></g></g><g fill="#ffffff" fill-opacity="1"><g transform="translate(189.33394, 258.474943)"><g/></g></g><g fill="#ffffff" fill-opacity="1"><g transform="translate(194.933179, 258.474943)"><g><path d="M 2.15625 0 L 2.15625 -18.25 L 13.65625 -18.25 L 13.65625 -14.78125 L 6.265625 -14.78125 L 6.265625 -10.5625 L 12.59375 -10.5625 L 12.59375 -7.078125 L 6.265625 -7.078125 L 6.265625 0 Z M 2.15625 0 "/></g></g></g><g fill="#ffffff" fill-opacity="1"><g transform="translate(209.099225, 258.474943)"><g><path d="M 8.03125 0.34375 C 7.039062 0.34375 6.113281 0.179688 5.25 -0.140625 C 4.394531 -0.472656 3.648438 -0.953125 3.015625 -1.578125 C 2.390625 -2.203125 1.898438 -2.960938 1.546875 -3.859375 C 1.191406 -4.753906 1.015625 -5.78125 1.015625 -6.9375 C 1.015625 -8.0625 1.195312 -9.078125 1.5625 -9.984375 C 1.9375 -10.890625 2.425781 -11.65625 3.03125 -12.28125 C 3.644531 -12.90625 4.34375 -13.382812 5.125 -13.71875 C 5.90625 -14.050781 6.71875 -14.21875 7.5625 -14.21875 C 8.550781 -14.21875 9.410156 -14.050781 10.140625 -13.71875 C 10.878906 -13.382812 11.492188 -12.914062 11.984375 -12.3125 C 12.484375 -11.71875 12.851562 -11.015625 13.09375 -10.203125 C 13.34375 -9.390625 13.46875 -8.507812 13.46875 -7.5625 C 13.46875 -7.1875 13.445312 -6.828125 13.40625 -6.484375 C 13.375 -6.148438 13.335938 -5.898438 13.296875 -5.734375 L 4.984375 -5.734375 C 5.171875 -4.734375 5.585938 -3.992188 6.234375 -3.515625 C 6.878906 -3.035156 7.664062 -2.796875 8.59375 -2.796875 C 9.582031 -2.796875 10.582031 -3.101562 11.59375 -3.71875 L 12.96875 -1.234375 C 12.257812 -0.742188 11.46875 -0.359375 10.59375 -0.078125 C 9.726562 0.203125 8.875 0.34375 8.03125 0.34375 Z M 4.953125 -8.453125 L 9.96875 -8.453125 C 9.96875 -9.234375 9.789062 -9.867188 9.4375 -10.359375 C 9.082031 -10.847656 8.484375 -11.09375 7.640625 -11.09375 C 6.984375 -11.09375 6.410156 -10.875 5.921875 -10.4375 C 5.429688 -10.007812 5.109375 -9.347656 4.953125 -8.453125 Z M 4.953125 -8.453125 "/></g></g></g><g fill="#ffffff" fill-opacity="1"><g transform="translate(223.601245, 258.474943)"><g><path d="M 5.90625 0.34375 C 4.988281 0.34375 4.050781 0.164062 3.09375 -0.1875 C 2.132812 -0.550781 1.300781 -1.019531 0.59375 -1.59375 L 2.4375 -4.171875 C 3.070312 -3.679688 3.675781 -3.316406 4.25 -3.078125 C 4.832031 -2.835938 5.421875 -2.71875 6.015625 -2.71875 C 6.628906 -2.71875 7.078125 -2.816406 7.359375 -3.015625 C 7.640625 -3.222656 7.78125 -3.515625 7.78125 -3.890625 C 7.78125 -4.117188 7.703125 -4.320312 7.546875 -4.5 C 7.390625 -4.675781 7.175781 -4.835938 6.90625 -4.984375 C 6.632812 -5.128906 6.328125 -5.265625 5.984375 -5.390625 C 5.648438 -5.515625 5.304688 -5.648438 4.953125 -5.796875 C 4.523438 -5.960938 4.097656 -6.15625 3.671875 -6.375 C 3.242188 -6.601562 2.847656 -6.878906 2.484375 -7.203125 C 2.128906 -7.535156 1.835938 -7.921875 1.609375 -8.359375 C 1.390625 -8.796875 1.28125 -9.304688 1.28125 -9.890625 C 1.28125 -10.523438 1.40625 -11.109375 1.65625 -11.640625 C 1.914062 -12.179688 2.273438 -12.640625 2.734375 -13.015625 C 3.203125 -13.390625 3.765625 -13.679688 4.421875 -13.890625 C 5.078125 -14.109375 5.804688 -14.21875 6.609375 -14.21875 C 7.671875 -14.21875 8.601562 -14.035156 9.40625 -13.671875 C 10.207031 -13.304688 10.910156 -12.898438 11.515625 -12.453125 L 9.65625 -10 C 9.15625 -10.375 8.660156 -10.660156 8.171875 -10.859375 C 7.691406 -11.066406 7.207031 -11.171875 6.71875 -11.171875 C 5.675781 -11.171875 5.15625 -10.804688 5.15625 -10.078125 C 5.15625 -9.859375 5.226562 -9.664062 5.375 -9.5 C 5.519531 -9.34375 5.71875 -9.195312 5.96875 -9.0625 C 6.226562 -8.9375 6.519531 -8.8125 6.84375 -8.6875 C 7.175781 -8.570312 7.519531 -8.445312 7.875 -8.3125 C 8.320312 -8.144531 8.765625 -7.953125 9.203125 -7.734375 C 9.640625 -7.523438 10.039062 -7.257812 10.40625 -6.9375 C 10.769531 -6.625 11.0625 -6.238281 11.28125 -5.78125 C 11.507812 -5.320312 11.625 -4.773438 11.625 -4.140625 C 11.625 -3.503906 11.5 -2.914062 11.25 -2.375 C 11.007812 -1.832031 10.644531 -1.359375 10.15625 -0.953125 C 9.675781 -0.554688 9.082031 -0.238281 8.375 0 C 7.664062 0.226562 6.84375 0.34375 5.90625 0.34375 Z M 5.90625 0.34375 "/></g></g></g><g fill="#ffffff" fill-opacity="1"><g transform="translate(235.443602, 258.474943)"><g><path d="M 7.171875 0.34375 C 6.304688 0.34375 5.570312 0.210938 4.96875 -0.046875 C 4.363281 -0.316406 3.867188 -0.679688 3.484375 -1.140625 C 3.097656 -1.609375 2.816406 -2.175781 2.640625 -2.84375 C 2.460938 -3.507812 2.375 -4.242188 2.375 -5.046875 L 2.375 -10.671875 L 0.46875 -10.671875 L 0.46875 -13.71875 L 2.609375 -13.890625 L 3.078125 -17.578125 L 6.5 -17.578125 L 6.5 -13.890625 L 9.828125 -13.890625 L 9.828125 -10.671875 L 6.5 -10.671875 L 6.5 -5.09375 C 6.5 -4.3125 6.660156 -3.75 6.984375 -3.40625 C 7.304688 -3.0625 7.738281 -2.890625 8.28125 -2.890625 C 8.507812 -2.890625 8.738281 -2.914062 8.96875 -2.96875 C 9.207031 -3.019531 9.421875 -3.082031 9.609375 -3.15625 L 10.25 -0.171875 C 9.875 -0.0546875 9.429688 0.0546875 8.921875 0.171875 C 8.421875 0.285156 7.835938 0.34375 7.171875 0.34375 Z M 7.171875 0.34375 "/></g></g></g><g fill="#ffffff" fill-opacity="1"><g transform="translate(246.166143, 258.474943)"><g><path d="M 1.8125 0 L 1.8125 -13.890625 L 5.9375 -13.890625 L 5.9375 0 Z M 3.859375 -15.9375 C 3.171875 -15.9375 2.601562 -16.132812 2.15625 -16.53125 C 1.707031 -16.9375 1.484375 -17.457031 1.484375 -18.09375 C 1.484375 -18.726562 1.707031 -19.238281 2.15625 -19.625 C 2.601562 -20.019531 3.171875 -20.21875 3.859375 -20.21875 C 4.566406 -20.21875 5.140625 -20.019531 5.578125 -19.625 C 6.023438 -19.238281 6.25 -18.726562 6.25 -18.09375 C 6.25 -17.457031 6.023438 -16.9375 5.578125 -16.53125 C 5.140625 -16.132812 4.566406 -15.9375 3.859375 -15.9375 Z M 3.859375 -15.9375 "/></g></g></g><g fill="#ffffff" fill-opacity="1"><g transform="translate(253.893091, 258.474943)"><g><path d="M 5.015625 0 L 0.34375 -13.890625 L 4.484375 -13.890625 L 6.265625 -7.34375 C 6.453125 -6.644531 6.632812 -5.9375 6.8125 -5.21875 C 6.988281 -4.5 7.171875 -3.773438 7.359375 -3.046875 L 7.46875 -3.046875 C 7.644531 -3.773438 7.820312 -4.5 8 -5.21875 C 8.175781 -5.9375 8.359375 -6.644531 8.546875 -7.34375 L 10.359375 -13.890625 L 14.3125 -13.890625 L 9.765625 0 Z M 5.015625 0 "/></g></g></g><g fill="#ffffff" fill-opacity="1"><g transform="translate(267.975147, 258.474943)"><g><path d="M 5.3125 0.34375 C 4.6875 0.34375 4.113281 0.234375 3.59375 0.015625 C 3.082031 -0.203125 2.648438 -0.5 2.296875 -0.875 C 1.941406 -1.257812 1.664062 -1.703125 1.46875 -2.203125 C 1.269531 -2.710938 1.171875 -3.265625 1.171875 -3.859375 C 1.171875 -5.316406 1.785156 -6.457031 3.015625 -7.28125 C 4.253906 -8.101562 6.242188 -8.65625 8.984375 -8.9375 C 8.953125 -9.550781 8.769531 -10.039062 8.4375 -10.40625 C 8.113281 -10.769531 7.566406 -10.953125 6.796875 -10.953125 C 6.203125 -10.953125 5.609375 -10.835938 5.015625 -10.609375 C 4.429688 -10.390625 3.804688 -10.082031 3.140625 -9.6875 L 1.65625 -12.40625 C 2.550781 -12.945312 3.488281 -13.382812 4.46875 -13.71875 C 5.445312 -14.050781 6.488281 -14.21875 7.59375 -14.21875 C 9.382812 -14.21875 10.75 -13.707031 11.6875 -12.6875 C 12.632812 -11.675781 13.109375 -10.097656 13.109375 -7.953125 L 13.109375 0 L 9.75 0 L 9.46875 -1.421875 L 9.359375 -1.421875 C 8.753906 -0.898438 8.125 -0.472656 7.46875 -0.140625 C 6.820312 0.179688 6.101562 0.34375 5.3125 0.34375 Z M 6.71875 -2.859375 C 7.1875 -2.859375 7.585938 -2.957031 7.921875 -3.15625 C 8.253906 -3.363281 8.609375 -3.65625 8.984375 -4.03125 L 8.984375 -6.46875 C 7.523438 -6.257812 6.515625 -5.957031 5.953125 -5.5625 C 5.398438 -5.175781 5.125 -4.710938 5.125 -4.171875 C 5.125 -3.722656 5.265625 -3.390625 5.546875 -3.171875 C 5.835938 -2.960938 6.226562 -2.859375 6.71875 -2.859375 Z M 6.71875 -2.859375 "/></g></g></g><g fill="#ffffff" fill-opacity="1"><g transform="translate(282.729133, 258.474943)"><g><path d="M 5.59375 0.34375 C 4.882812 0.34375 4.285156 0.226562 3.796875 0 C 3.316406 -0.226562 2.929688 -0.539062 2.640625 -0.9375 C 2.359375 -1.34375 2.148438 -1.828125 2.015625 -2.390625 C 1.878906 -2.960938 1.8125 -3.601562 1.8125 -4.3125 L 1.8125 -19.625 L 5.9375 -19.625 L 5.9375 -4.140625 C 5.9375 -3.710938 6.015625 -3.414062 6.171875 -3.25 C 6.328125 -3.082031 6.488281 -3 6.65625 -3 C 6.75 -3 6.828125 -3 6.890625 -3 C 6.960938 -3 7.054688 -3.015625 7.171875 -3.046875 L 7.671875 0 C 7.453125 0.09375 7.164062 0.171875 6.8125 0.234375 C 6.46875 0.304688 6.0625 0.34375 5.59375 0.34375 Z M 5.59375 0.34375 "/></g></g></g><g fill="#ffffff" fill-opacity="1"><g transform="translate(80.134709, 177.175008)"><g><path d="M 14.6875 0 L 14.6875 -38.015625 L 1.796875 -38.015625 L 1.796875 -46.9375 L 38.234375 -46.9375 L 38.234375 -38.015625 L 25.34375 -38.015625 L 25.34375 0 Z M 14.6875 0 "/></g></g></g><g fill="#ffffff" fill-opacity="1"><g transform="translate(120.16669, 177.175008)"><g><path d="M 4.6875 0 L 4.6875 -35.71875 L 13.3125 -35.71875 L 14.046875 -29.453125 L 14.328125 -29.453125 C 15.617188 -31.898438 17.175781 -33.695312 19 -34.84375 C 20.832031 -36 22.660156 -36.578125 24.484375 -36.578125 C 25.484375 -36.578125 26.304688 -36.515625 26.953125 -36.390625 C 27.609375 -36.273438 28.203125 -36.097656 28.734375 -35.859375 L 27 -26.71875 C 26.320312 -26.90625 25.695312 -27.046875 25.125 -27.140625 C 24.550781 -27.234375 23.878906 -27.28125 23.109375 -27.28125 C 21.765625 -27.28125 20.359375 -26.800781 18.890625 -25.84375 C 17.429688 -24.882812 16.222656 -23.179688 15.265625 -20.734375 L 15.265625 0 Z M 4.6875 0 "/></g></g></g><g fill="#ffffff" fill-opacity="1"><g transform="translate(148.82267, 177.175008)"><g><path d="M 4.6875 0 L 4.6875 -35.71875 L 15.265625 -35.71875 L 15.265625 0 Z M 9.9375 -40.96875 C 8.15625 -40.96875 6.6875 -41.484375 5.53125 -42.515625 C 4.382812 -43.546875 3.8125 -44.878906 3.8125 -46.515625 C 3.8125 -48.140625 4.382812 -49.457031 5.53125 -50.46875 C 6.6875 -51.476562 8.15625 -51.984375 9.9375 -51.984375 C 11.757812 -51.984375 13.234375 -51.476562 14.359375 -50.46875 C 15.492188 -49.457031 16.0625 -48.140625 16.0625 -46.515625 C 16.0625 -44.878906 15.492188 -43.546875 14.359375 -42.515625 C 13.234375 -41.484375 11.757812 -40.96875 9.9375 -40.96875 Z M 9.9375 -40.96875 "/></g></g></g><g fill="#ffffff" fill-opacity="1"><g transform="translate(168.694659, 177.175008)"><g><path d="M 4.6875 0 L 4.6875 -35.71875 L 13.3125 -35.71875 L 14.046875 -31.171875 L 14.328125 -31.171875 C 15.859375 -32.617188 17.535156 -33.878906 19.359375 -34.953125 C 21.191406 -36.035156 23.332031 -36.578125 25.78125 -36.578125 C 29.664062 -36.578125 32.484375 -35.300781 34.234375 -32.75 C 35.984375 -30.207031 36.859375 -26.679688 36.859375 -22.171875 L 36.859375 0 L 26.28125 0 L 26.28125 -20.8125 C 26.28125 -23.40625 25.929688 -25.179688 25.234375 -26.140625 C 24.535156 -27.097656 23.421875 -27.578125 21.890625 -27.578125 C 20.546875 -27.578125 19.390625 -27.273438 18.421875 -26.671875 C 17.460938 -26.078125 16.410156 -25.226562 15.265625 -24.125 L 15.265625 0 Z M 4.6875 0 "/></g></g></g><g fill="#ffffff" fill-opacity="1"><g transform="translate(209.878636, 177.175008)"><g><path d="M 4.6875 0 L 4.6875 -35.71875 L 15.265625 -35.71875 L 15.265625 0 Z M 9.9375 -40.96875 C 8.15625 -40.96875 6.6875 -41.484375 5.53125 -42.515625 C 4.382812 -43.546875 3.8125 -44.878906 3.8125 -46.515625 C 3.8125 -48.140625 4.382812 -49.457031 5.53125 -50.46875 C 6.6875 -51.476562 8.15625 -51.984375 9.9375 -51.984375 C 11.757812 -51.984375 13.234375 -51.476562 14.359375 -50.46875 C 15.492188 -49.457031 16.0625 -48.140625 16.0625 -46.515625 C 16.0625 -44.878906 15.492188 -43.546875 14.359375 -42.515625 C 13.234375 -41.484375 11.757812 -40.96875 9.9375 -40.96875 Z M 9.9375 -40.96875 "/></g></g></g><g fill="#ffffff" fill-opacity="1"><g transform="translate(229.750625, 177.175008)"><g><path d="M 18.4375 0.859375 C 16.226562 0.859375 14.34375 0.523438 12.78125 -0.140625 C 11.21875 -0.816406 9.941406 -1.753906 8.953125 -2.953125 C 7.972656 -4.148438 7.253906 -5.597656 6.796875 -7.296875 C 6.347656 -9.003906 6.125 -10.890625 6.125 -12.953125 L 6.125 -27.4375 L 1.21875 -27.4375 L 1.21875 -35.28125 L 6.703125 -35.71875 L 7.921875 -45.21875 L 16.703125 -45.21875 L 16.703125 -35.71875 L 25.265625 -35.71875 L 25.265625 -27.4375 L 16.703125 -27.4375 L 16.703125 -13.109375 C 16.703125 -11.085938 17.117188 -9.632812 17.953125 -8.75 C 18.796875 -7.863281 19.914062 -7.421875 21.3125 -7.421875 C 21.882812 -7.421875 22.46875 -7.488281 23.0625 -7.625 C 23.664062 -7.769531 24.210938 -7.941406 24.703125 -8.140625 L 26.359375 -0.4375 C 25.390625 -0.144531 24.257812 0.140625 22.96875 0.421875 C 21.675781 0.710938 20.164062 0.859375 18.4375 0.859375 Z M 18.4375 0.859375 "/></g></g></g><g fill="#ffffff" fill-opacity="1"><g transform="translate(257.326615, 177.175008)"><g><path d="M 8.640625 13.96875 C 7.535156 13.96875 6.597656 13.90625 5.828125 13.78125 C 5.066406 13.664062 4.320312 13.488281 3.59375 13.25 L 5.46875 5.1875 C 5.800781 5.28125 6.179688 5.375 6.609375 5.46875 C 7.046875 5.5625 7.457031 5.609375 7.84375 5.609375 C 9.625 5.609375 10.992188 5.175781 11.953125 4.3125 C 12.910156 3.457031 13.628906 2.332031 14.109375 0.9375 L 14.609375 -0.9375 L 0.859375 -35.71875 L 11.515625 -35.71875 L 16.625 -20.375 C 17.15625 -18.738281 17.632812 -17.082031 18.0625 -15.40625 C 18.5 -13.726562 18.957031 -12 19.4375 -10.21875 L 19.734375 -10.21875 C 20.109375 -11.90625 20.5 -13.597656 20.90625 -15.296875 C 21.320312 -17.003906 21.742188 -18.695312 22.171875 -20.375 L 26.5 -35.71875 L 36.640625 -35.71875 L 24.265625 0.359375 C 23.398438 2.617188 22.5 4.597656 21.5625 6.296875 C 20.625 8.003906 19.539062 9.421875 18.3125 10.546875 C 17.09375 11.671875 15.703125 12.519531 14.140625 13.09375 C 12.585938 13.675781 10.753906 13.96875 8.640625 13.96875 Z M 8.640625 13.96875 "/></g></g></g></svg>